mtllib trenchBoomMapTest.mtl
# vertices
v -96 16 -128
v -96 16 112
v -96 32 112
v -96 32 -128
v 128 32 112
v 128 16 112
v 128 16 -128
v 128 32 -128
v -96 32 96
v -96 32 112
v -96 96 112
v -96 96 96
v 128 96 112
v 128 32 112
v 128 32 96
v 128 96 96
v -96 32 -128
v -96 32 96
v -96 96 96
v -96 96 -128
v -80 96 96
v -80 32 96
v -80 32 -128
v -80 96 -128
v 112 32 -128
v 112 32 -32
v 112 96 -32
v 112 96 -128
v 128 96 -32
v 128 32 -32
v 128 32 -128
v 128 96 -128
v 112 32 16
v 112 32 112
v 112 96 112
v 112 96 16
v 128 96 112
v 128 32 112
v 128 32 16
v 128 96 16
v 128 16 -32
v 128 16 16
v 128 32 16
v 128 32 -32
v 400 32 16
v 400 16 16
v 400 16 -32
v 400 32 -32
v 128 32 -48
v 128 32 -32
v 128 96 -32
v 128 96 -48
v 400 96 -32
v 400 32 -32
v 400 32 -48
v 400 96 -48
v 128 32 16
v 128 32 32
v 128 96 32
v 128 96 16
v 448 96 32
v 448 32 32
v 448 32 16
v 448 96 16
v 400 16 -256
v 400 16 16
v 400 32 16
v 400 32 -256
v 448 32 16
v 448 16 16
v 448 16 -256
v 448 32 -256
v 400 16 -528
v 400 16 -256
v 400 32 -256
v 400 32 -528
v 448 32 -256
v 448 16 -256
v 448 16 -528
v 448 32 -528
v 128 16 -528
v 128 16 -480
v 128 32 -480
v 128 32 -528
v 400 32 -480
v 400 16 -480
v 400 16 -528
v 400 32 -528
v 16 16 -528
v 16 16 -480
v 16 32 -480
v 16 32 -528
v 128 32 -480
v 128 16 -480
v 128 16 -528
v 128 32 -528
v 16 16 -480
v 16 16 -128
v 16 32 -128
v 16 32 -480
v 64 32 -128
v 64 16 -128
v 64 16 -480
v 64 32 -480
v 80 32 -144
v 80 32 -128
v 80 96 -128
v 80 96 -144
v 128 96 -128
v 128 32 -128
v 128 32 -144
v 128 96 -144
v 0 32 -528
v 0 32 -128
v 0 96 -128
v 0 96 -528
v 16 96 -128
v 16 32 -128
v 16 32 -528
v 16 96 -528
v 64 32 -480
v 64 32 -128
v 64 96 -128
v 64 96 -480
v 80 96 -128
v 80 32 -128
v 80 32 -480
v 80 96 -480
v 0 32 -544
v 0 32 -528
v 0 96 -528
v 0 96 -544
v 448 96 -528
v 448 32 -528
v 448 32 -544
v 448 96 -544
v 80 32 -480
v 80 32 -464
v 80 96 -464
v 80 96 -480
v 400 96 -464
v 400 32 -464
v 400 32 -480
v 400 96 -480
v 448 32 -544
v 448 32 32
v 448 96 32
v 448 96 -544
v 464 96 32
v 464 32 32
v 464 32 -544
v 464 96 -544
v 384 32 -464
v 384 32 -48
v 384 96 -48
v 384 96 -464
v 400 96 -48
v 400 32 -48
v 400 32 -464
v 400 96 -464
v -80 96 -128
v -80 96 96
v -80 112 96
v -80 112 -128
v 112 112 96
v 112 96 96
v 112 96 -128
v 112 112 -128
v -80 32 -144
v -80 32 -128
v -80 96 -128
v -80 96 -144
v 0 96 -128
v 0 32 -128
v 0 32 -144
v 0 96 -144
v -96 16 -128
v -96 16 112
v -96 32 112
v -96 32 -128
v 128 32 112
v 128 16 112
v 128 16 -128
v 128 32 -128
v 16 96 -480
v 16 96 -128
v 16 112 -128
v 16 112 -480
v 64 112 -128
v 64 96 -128
v 64 96 -480
v 64 112 -480
v 128 96 -528
v 128 96 -480
v 128 112 -480
v 128 112 -528
v 400 112 -480
v 400 96 -480
v 400 96 -528
v 400 112 -528
v 16 96 -528
v 16 96 -480
v 16 112 -480
v 16 112 -528
v 128 112 -480
v 128 96 -480
v 128 96 -528
v 128 112 -528
v 400 96 -528
v 400 96 -256
v 400 112 -256
v 400 112 -528
v 448 112 -256
v 448 96 -256
v 448 96 -528
v 448 112 -528
v 400 96 -256
v 400 96 16
v 400 112 16
v 400 112 -256
v 448 112 16
v 448 96 16
v 448 96 -256
v 448 112 -256
v 112 96 -32
v 112 96 16
v 112 112 16
v 112 112 -32
v 400 112 16
v 400 96 16
v 400 96 -32
v 400 112 -32

# texture coordinates
vt 2 0.25
vt -1.75 0.25
vt -1.75 0.5
vt 2 0.5
vt 2.75 0.5
vt -0.75 0.5
vt -0.75 0.25
vt 2.75 0.25
vt 2.75 -1.75
vt -0.75 -1.75
vt -0.75 2
vt 2.75 2
vt 1 0.75
vt 1 1
vt 2 1
vt 2 0.75
vt 2.25 2
vt -1.25 2
vt -1.25 1
vt 2.25 1
vt -1.25 0.75
vt 2.25 0.75
vt -1.5 1.25
vt -1.75 1.25
vt -1.5 0.25
vt 2 -1
vt 2 -1.25
vt 1 -1.25
vt 1 -1
vt -1.25 -1
vt -1.25 -1.25
vt 2.25 -1.25
vt 2.25 -1
vt 1.25 0.25
vt 1.5 0.25
vt 1.5 1.25
vt 1.25 1.25
vt 1.25 1
vt -0.25 1
vt -0.25 2
vt 1.25 2
vt 2 2
vt 2 1.75
vt 1 1.75
vt 1 2
vt -0.25 1.75
vt 1.25 1.75
vt 0.25 1
vt 0.25 2
vt 2.5 -1.5
vt 2.25 -1.5
vt 2.25 -0.5
vt 2.5 -0.5
vt -1.25 1.75
vt 0.25 1.75
vt -1 1
vt -1 2
vt 25.25 2
vt 8.25 2
vt 8.25 1
vt 25.25 1
vt 25.25 -1
vt 8.25 -1
vt 2.75 2.25
vt -0.25 2.25
vt -0.25 1.25
vt 2.75 1.25
vt 6 2
vt 1.75 2
vt 1.75 1
vt 6 1
vt 6 -1
vt 1.75 -1
vt 1.75 -1.25
vt 6 -1.25
vt 1 -0.25
vt 1 -0
vt 2 -0
vt 2 -0.25
vt 6.75 2
vt 6.75 1
vt 6.75 -0
vt 1.75 -0
vt 1.75 -0.25
vt 6.75 -0.25
vt 15.5 1
vt -1.5 1
vt -1.5 2
vt 15.5 2
vt -28.25 -2
vt -25.25 -2
vt -25.25 -1
vt -28.25 -1
vt -1.5 -28.25
vt -1.5 -25.25
vt 15.5 -25.25
vt 15.5 -28.25
vt -28.5 -0.75
vt -25.5 -0.75
vt -25.5 -1.75
vt -28.5 -1.75
vt 33.25 1
vt 16.25 1
vt 16.25 2
vt 33.25 2
vt 16.25 -28.25
vt 16.25 -25.25
vt 33.25 -25.25
vt 33.25 -28.25
vt 33.75 1.25
vt 30.75 1.25
vt 30.75 2.25
vt 33.75 2.25
vt 24.5 2
vt 7.5 2
vt 7.5 1
vt 24.5 1
vt 24.5 30
vt 7.5 30
vt 7.5 33
vt 24.5 33
vt 33 2
vt 30 2
vt 30 1
vt 33 1
vt -32.25 -0.75
vt -29.25 -0.75
vt -29.25 -1.75
vt -32.25 -1.75
vt -8.75 -2
vt -1.75 -2
vt -1.75 -1
vt -8.75 -1
vt -8.75 -30
vt -1.75 -30
vt -1.75 -33
vt -8.75 -33
vt -33 -2
vt -30 -2
vt -30 -1
vt -33 -1
vt 0.75 -30
vt 0.75 -8
vt 1.75 -8
vt 1.75 -30
vt -2.75 4
vt -2.75 1
vt -1.75 1
vt -1.75 4
vt -4.25 -8
vt -1.25 -8
vt -1.25 -30
vt -4.25 -30
vt -1.5 4
vt -2.5 1
vt -2.5 4
vt 1 -2.25
vt 1 -2
vt 2 -2
vt 2 -2.25
vt 1.25 -2
vt 1.25 -2.25
vt 7.75 1
vt 1.5 1
vt 1.5 2
vt 7.75 2
vt 1.5 -0
vt 1.5 -0.25
vt 7.75 -0.25
vt 7.75 -0
vt 0.25 0.25
vt 0.5 0.25
vt 0.5 1.25
vt 0.25 1.25
vt 7 1
vt 7 2
vt 1.5 0.75
vt 7 0.75
vt -0.5 0.25
vt -0.5 1.25
vt -0.75 1.25
vt -8.75 0.25
vt -8.5 0.25
vt -8.5 1.25
vt -8.75 1.25
vt -6.25 2
vt 0.75 2
vt 0.75 1
vt -6.25 1
vt -6.25 8.75
vt 0.75 8.75
vt 0.75 9
vt -6.25 9
vt 2 9
vt 2 8.75
vt 1 8.75
vt 1 9
vt -7.75 0.25
vt -7.5 0.25
vt -7.5 1.25
vt -7.75 1.25
vt -6 2
vt -6 1
vt -6 7.75
vt -1 7.75
vt -1 8
vt -6 8
vt 2 8
vt 2 7.75
vt 1 7.75
vt 1 8
vt -9.25 1
vt -9.25 2
vt 6.5 1.25
vt 6.25 1.25
vt 6.25 0.25
vt 6.5 0.25
vt -0.25 -7.25
vt -0.25 -7
vt -9.25 -7
vt -9.25 -7.25
vt 1 -7.25
vt 1 -7
vt 2 -7
vt 2 -7.25
vt -8 1
vt -8 2
vt 6.5 1.5
vt 6.25 1.5
vt 6.25 0.5
vt 6.5 0.5
vt -1.5 -6.25
vt -1.5 -6
vt -8 -6
vt -8 -6.25
vt 1 -6.25
vt 1 -6
vt 2 -6
vt 2 -6.25
vt 2 1.25
vt -1.5 1.5
vt 2 1.5
vt 2.5 1.5
vt -0.5 1.5
vt 2.5 1.25
vt -0.5 -1.5
vt -0.5 2
vt 2.5 2
vt -0.75 1
vt 2.75 1
vt 2.5 0.25
vt 2.25 0.25
vt 2.25 1.25
vt 0.5 2
vt 0.5 1
vt 0.5 -2
vt -0.75 -2
vt -0.75 -2.25
vt 0.5 -2.25
vt 8 1
vt -7 1
vt -7 2
vt 8 2
vt 8.75 2
vt -5.25 2
vt -5.25 1
vt 8.75 1
vt 8.75 -7
vt -5.25 -7
vt -5.25 8
vt 8.75 8
vt 1.25 7.25
vt 1.5 1.75
vt 1.5 7.25
vt -2.5 0.25
vt -2.25 0.25
vt -2.25 1
vt -1.25 -2.5
vt -0.5 -2.5
vt -0.5 -8
vt -2 0.75
vt -2 -0
vt -2.25 -0
vt -2.25 0.75
vt 2.25 8.25
vt 2.25 7.5
vt 2.5 7.5
vt 2.5 8.25
vt 1.25 6
vt 1 6
vt 7 -6.25
vt 7 -2
vt 7.75 -2
vt 7.75 -6.25
vt 1.75 8
vt 1.75 7.25
vt 1.5 8
vt -7.5 1.5
vt -6.75 1.5
vt -6.75 1.75
vt -7.5 1.75
vt -2.75 1.5
vt -1 1.5
vt -1 1.25
vt -2.75 1.25
vt -2.75 -7.5
vt -1 -7.5
vt -1 -8.25
vt -2.75 -8.25
vt -8.25 1.5
vt -8.25 1.25
vt 8.5 1.25
vt 4.25 1.25
vt 4.25 1.5
vt 8.5 1.5
vt -7.25 1.5
vt -6.5 1.5
vt -6.5 1.25
vt -7.25 1.25
vt 4.25 -7.25
vt 4.25 -6.5
vt 8.5 -6.5
vt 8.5 -7.25
vt -4.5 1.25
vt -0.25 1.5
vt -4.5 1.5
vt 6.75 1.5
vt 6 1.5
vt 6 1.25
vt 6.75 1.25
vt -0.25 -6.5
vt -4.5 -6.5
vt -4.5 -7.25
vt 5.75 1.5
vt 5.75 1.75
vt 6.5 1.75
vt -1.5 -0.5
vt -1.75 -0.5
vt -1.5 6
vt -1.25 1.5
vt -1.25 6
vt 0.5 6.25
vt 0.5 1.75
vt -0.25 6.25
vt -1 0.5
vt -1 -0.25
vt -0.75 -0.25

# normals
vn -1 0 -0
vn 0 0 1
vn 0 -1 -0
vn 0 1 -0
vn 0 0 -1
vn 1 0 -0

o entity0_brush0
usemtl retroTexturePack/FLOOR_1A
f  1/1/1  2/2/1  3/3/1  4/4/1
usemtl retroTexturePack/FLOOR_1A
f  5/5/2  3/6/2  2/7/2  6/8/2
usemtl retroTexturePack/FLOOR_1A
f  6/9/3  2/10/3  1/11/3  7/12/3
usemtl retroTexturePack/FLOOR_1A
f  8/12/4  4/11/4  3/10/4  5/9/4
usemtl retroTexturePack/FLOOR_1A
f  7/8/5  1/7/5  4/6/5  8/5/5
usemtl retroTexturePack/FLOOR_1A
f  8/4/6  5/3/6  6/2/6  7/1/6

o entity0_brush1
usemtl retroTexturePack/TECH_0A
f  9/13/1  10/14/1  11/15/1  12/16/1
usemtl retroTexturePack/TECH_0A
f  13/17/2  11/18/2  10/19/2  14/20/2
usemtl retroTexturePack/TECH_0A
f  14/20/3  10/19/3  9/21/3  15/22/3
usemtl retroTexturePack/TECH_0A
f  16/22/4  12/21/4  11/19/4  13/20/4
usemtl retroTexturePack/TECH_0A
f  15/20/5  9/19/5  12/18/5  16/17/5
usemtl retroTexturePack/TECH_0A
f  16/23/6  13/24/6  14/2/6  15/25/6

o entity0_brush2
usemtl retroTexturePack/TECH_0A
f  17/20/1  18/19/1  19/18/1  20/17/1
usemtl retroTexturePack/TECH_0A
f  21/26/2  19/27/2  18/28/2  22/29/2
usemtl retroTexturePack/TECH_0A
f  22/30/3  18/31/3  17/32/3  23/33/3
usemtl retroTexturePack/TECH_0A
f  24/33/4  20/32/4  19/31/4  21/30/4
usemtl retroTexturePack/TECH_0A
f  23/34/5  17/35/5  20/36/5  24/37/5
usemtl retroTexturePack/TECH_0A
f  24/17/6  21/18/6  22/19/6  23/20/6

o entity0_brush3
usemtl retroTexturePack/TECH_0A
f  25/38/1  26/39/1  27/40/1  28/41/1
usemtl retroTexturePack/TECH_0A
f  29/42/2  27/43/2  26/44/2  30/45/2
usemtl retroTexturePack/TECH_0A
f  30/40/3  26/46/3  25/47/3  31/41/3
usemtl retroTexturePack/TECH_0A
f  32/41/4  28/47/4  27/46/4  29/40/4
usemtl retroTexturePack/TECH_0A
f  31/2/5  25/25/5  28/23/5  32/24/5
usemtl retroTexturePack/TECH_0A
f  32/41/6  29/40/6  30/39/6  31/38/6

o entity0_brush4
usemtl retroTexturePack/TECH_0A
f  33/48/1  34/19/1  35/18/1  36/49/1
usemtl retroTexturePack/TECH_0A
f  37/50/2  35/51/2  34/52/2  38/53/2
usemtl retroTexturePack/TECH_0A
f  38/18/3  34/54/3  33/55/3  39/49/3
usemtl retroTexturePack/TECH_0A
f  40/49/4  36/55/4  35/54/4  37/18/4
usemtl retroTexturePack/TECH_0A
f  39/2/5  33/25/5  36/23/5  40/24/5
usemtl retroTexturePack/TECH_0A
f  40/49/6  37/18/6  38/19/6  39/48/6

o entity0_brush5
usemtl retroTexturePack/FLOOR_1A
f  41/15/1  42/56/1  43/57/1  44/42/1
usemtl retroTexturePack/FLOOR_1A
f  45/58/2  43/59/2  42/60/2  46/61/2
usemtl retroTexturePack/FLOOR_1A
f  46/62/3  42/63/3  41/59/3  47/58/3
usemtl retroTexturePack/FLOOR_1A
f  48/58/4  44/59/4  43/63/4  45/62/4
usemtl retroTexturePack/FLOOR_1A
f  47/61/5  41/60/5  44/59/5  48/58/5
usemtl retroTexturePack/FLOOR_1A
f  48/64/6  45/65/6  46/66/6  47/67/6

o entity0_brush6
usemtl retroTexturePack/TECH_0A
f  49/28/1  50/29/1  51/26/1  52/27/1
usemtl retroTexturePack/TECH_0A
f  53/68/2  51/69/2  50/70/2  54/71/2
usemtl retroTexturePack/TECH_0A
f  54/72/3  50/73/3  49/74/3  55/75/3
usemtl retroTexturePack/TECH_0A
f  56/75/4  52/74/4  51/73/4  53/72/4
usemtl retroTexturePack/TECH_0A
f  55/71/5  49/70/5  52/69/5  56/68/5
usemtl retroTexturePack/TECH_0A
f  56/27/6  53/26/6  54/29/6  55/28/6

o entity0_brush7
usemtl retroTexturePack/TECH_0A
f  57/76/1  58/77/1  59/78/1  60/79/1
usemtl retroTexturePack/TECH_0A
f  61/80/2  59/69/2  58/70/2  62/81/2
usemtl retroTexturePack/TECH_0A
f  62/82/3  58/83/3  57/84/3  63/85/3
usemtl retroTexturePack/TECH_0A
f  64/85/4  60/84/4  59/83/4  61/82/4
usemtl retroTexturePack/TECH_0A
f  63/81/5  57/70/5  60/69/5  64/80/5
usemtl retroTexturePack/TECH_0A
f  64/79/6  61/78/6  62/77/6  63/76/6

o entity0_brush8
usemtl retroTexturePack/FLOOR_1A
f  65/86/1  66/87/1  67/88/1  68/89/1
usemtl retroTexturePack/FLOOR_1A
f  69/90/2  67/91/2  66/92/2  70/93/2
usemtl retroTexturePack/FLOOR_1A
f  70/94/3  66/95/3  65/96/3  71/97/3
usemtl retroTexturePack/FLOOR_1A
f  72/97/4  68/96/4  67/95/4  69/94/4
usemtl retroTexturePack/FLOOR_1A
f  71/98/5  65/99/5  68/100/5  72/101/5
usemtl retroTexturePack/FLOOR_1A
f  72/89/6  69/88/6  70/87/6  71/86/6

o entity0_brush9
usemtl retroTexturePack/FLOOR_1A
f  73/102/1  74/103/1  75/104/1  76/105/1
usemtl retroTexturePack/FLOOR_1A
f  77/90/2  75/91/2  74/92/2  78/93/2
usemtl retroTexturePack/FLOOR_1A
f  78/106/3  74/107/3  73/108/3  79/109/3
usemtl retroTexturePack/FLOOR_1A
f  80/109/4  76/108/4  75/107/4  77/106/4
usemtl retroTexturePack/FLOOR_1A
f  79/98/5  73/99/5  76/100/5  80/101/5
usemtl retroTexturePack/FLOOR_1A
f  80/105/6  77/104/6  78/103/6  79/102/6

o entity0_brush10
usemtl retroTexturePack/FLOOR_1A
f  81/110/1  82/111/1  83/112/1  84/113/1
usemtl retroTexturePack/FLOOR_1A
f  85/114/2  83/115/2  82/116/2  86/117/2
usemtl retroTexturePack/FLOOR_1A
f  86/118/3  82/119/3  81/120/3  87/121/3
usemtl retroTexturePack/FLOOR_1A
f  88/121/4  84/120/4  83/119/4  85/118/4
usemtl retroTexturePack/FLOOR_1A
f  87/117/5  81/116/5  84/115/5  88/114/5
usemtl retroTexturePack/FLOOR_1A
f  88/122/6  85/123/6  86/124/6  87/125/6

o entity0_brush11
usemtl retroTexturePack/FLOOR_1A
f  89/126/1  90/127/1  91/128/1  92/129/1
usemtl retroTexturePack/FLOOR_1A
f  93/130/2  91/131/2  90/132/2  94/133/2
usemtl retroTexturePack/FLOOR_1A
f  94/134/3  90/135/3  89/136/3  95/137/3
usemtl retroTexturePack/FLOOR_1A
f  96/137/4  92/136/4  91/135/4  93/134/4
usemtl retroTexturePack/FLOOR_1A
f  95/133/5  89/132/5  92/131/5  96/130/5
usemtl retroTexturePack/FLOOR_1A
f  96/138/6  93/139/6  94/140/6  95/141/6

o entity0_brush12
usemtl retroTexturePack/FLOOR_1A
f  97/142/1  98/143/1  99/144/1  100/145/1
usemtl retroTexturePack/FLOOR_1A
f  101/146/2  99/147/2  98/148/2  102/149/2
usemtl retroTexturePack/FLOOR_1A
f  102/150/3  98/151/3  97/152/3  103/153/3
usemtl retroTexturePack/FLOOR_1A
f  104/153/4  100/152/4  99/151/4  101/150/4
usemtl retroTexturePack/FLOOR_1A
f  103/154/5  97/87/5  100/155/5  104/156/5
usemtl retroTexturePack/FLOOR_1A
f  104/145/6  101/144/6  102/143/6  103/142/6

o entity0_brush13
usemtl retroTexturePack/TECH_0A
f  105/157/1  106/158/1  107/159/1  108/160/1
usemtl retroTexturePack/TECH_0A
f  109/42/2  107/41/2  106/38/2  110/15/2
usemtl retroTexturePack/TECH_0A
f  110/159/3  106/161/3  105/162/3  111/160/3
usemtl retroTexturePack/TECH_0A
f  112/160/4  108/162/4  107/161/4  109/159/4
usemtl retroTexturePack/TECH_0A
f  111/15/5  105/38/5  108/41/5  112/42/5
usemtl retroTexturePack/TECH_0A
f  112/160/6  109/159/6  110/158/6  111/157/6

o entity0_brush14
usemtl retroTexturePack/TECH_0A
f  113/163/1  114/164/1  115/165/1  116/166/1
usemtl retroTexturePack/TECH_0A
f  117/78/2  115/79/2  114/76/2  118/77/2
usemtl retroTexturePack/TECH_0A
f  118/167/3  114/168/3  113/169/3  119/170/3
usemtl retroTexturePack/TECH_0A
f  120/170/4  116/169/4  115/168/4  117/167/4
usemtl retroTexturePack/TECH_0A
f  119/171/5  113/172/5  116/173/5  120/174/5
usemtl retroTexturePack/TECH_0A
f  120/166/6  117/165/6  118/164/6  119/163/6

o entity0_brush15
usemtl retroTexturePack/TECH_0A
f  121/175/1  122/164/1  123/165/1  124/176/1
usemtl retroTexturePack/TECH_0A
f  125/15/2  123/16/2  122/13/2  126/14/2
usemtl retroTexturePack/TECH_0A
f  126/164/3  122/177/3  121/178/3  127/175/3
usemtl retroTexturePack/TECH_0A
f  128/175/4  124/178/4  123/177/4  125/164/4
usemtl retroTexturePack/TECH_0A
f  127/7/5  121/179/5  124/180/5  128/181/5
usemtl retroTexturePack/TECH_0A
f  128/176/6  125/165/6  126/164/6  127/175/6

o entity0_brush16
usemtl retroTexturePack/TECH_0A
f  129/182/1  130/183/1  131/184/1  132/185/1
usemtl retroTexturePack/TECH_0A
f  133/186/2  131/187/2  130/188/2  134/189/2
usemtl retroTexturePack/TECH_0A
f  134/190/3  130/191/3  129/192/3  135/193/3
usemtl retroTexturePack/TECH_0A
f  136/193/4  132/192/4  131/191/4  133/190/4
usemtl retroTexturePack/TECH_0A
f  135/189/5  129/188/5  132/187/5  136/186/5
usemtl retroTexturePack/TECH_0A
f  136/194/6  133/195/6  134/196/6  135/197/6

o entity0_brush17
usemtl retroTexturePack/TECH_0A
f  137/198/1  138/199/1  139/200/1  140/201/1
usemtl retroTexturePack/TECH_0A
f  141/202/2  139/57/2  138/56/2  142/203/2
usemtl retroTexturePack/TECH_0A
f  142/204/3  138/205/3  137/206/3  143/207/3
usemtl retroTexturePack/TECH_0A
f  144/207/4  140/206/4  139/205/4  141/204/4
usemtl retroTexturePack/TECH_0A
f  143/203/5  137/56/5  140/57/5  144/202/5
usemtl retroTexturePack/TECH_0A
f  144/208/6  141/209/6  142/210/6  143/211/6

o entity0_brush18
usemtl retroTexturePack/TECH_0A
f  145/212/1  146/39/1  147/40/1  148/213/1
usemtl retroTexturePack/TECH_0A
f  149/214/2  147/215/2  146/216/2  150/217/2
usemtl retroTexturePack/TECH_0A
f  150/218/3  146/219/3  145/220/3  151/221/3
usemtl retroTexturePack/TECH_0A
f  152/221/4  148/220/4  147/219/4  149/218/4
usemtl retroTexturePack/TECH_0A
f  151/222/5  145/223/5  148/224/5  152/225/5
usemtl retroTexturePack/TECH_0A
f  152/213/6  149/40/6  150/39/6  151/212/6

o entity0_brush19
usemtl retroTexturePack/TECH_0A
f  153/226/1  154/87/1  155/88/1  156/227/1
usemtl retroTexturePack/TECH_0A
f  157/228/2  155/229/2  154/230/2  158/231/2
usemtl retroTexturePack/TECH_0A
f  158/232/3  154/233/3  153/234/3  159/235/3
usemtl retroTexturePack/TECH_0A
f  160/235/4  156/234/4  155/233/4  157/232/4
usemtl retroTexturePack/TECH_0A
f  159/236/5  153/237/5  156/238/5  160/239/5
usemtl retroTexturePack/TECH_0A
f  160/227/6  157/88/6  158/87/6  159/226/6

o entity0_brush20
usemtl retroTexturePack/LIGHT_1B
f  161/240/1  162/23/1  163/241/1  164/242/1
usemtl retroTexturePack/LIGHT_1B
f  165/243/2  163/244/2  162/180/2  166/245/2
usemtl retroTexturePack/LIGHT_1B
f  166/50/3  162/246/3  161/247/3  167/248/3
usemtl retroTexturePack/LIGHT_1B
f  168/248/4  164/247/4  163/246/4  165/50/4
usemtl retroTexturePack/LIGHT_1B
f  167/245/5  161/180/5  164/244/5  168/243/5
usemtl retroTexturePack/LIGHT_1B
f  168/67/6  165/181/6  166/249/6  167/250/6

o entity0_brush21
usemtl retroTexturePack/TECH_0A
f  169/251/1  170/252/1  171/253/1  172/245/1
usemtl retroTexturePack/TECH_0A
f  173/254/2  171/11/2  170/249/2  174/255/2
usemtl retroTexturePack/TECH_0A
f  174/256/3  170/257/3  169/258/3  175/259/3
usemtl retroTexturePack/TECH_0A
f  176/259/4  172/258/4  171/257/4  173/256/4
usemtl retroTexturePack/TECH_0A
f  175/255/5  169/249/5  172/11/5  176/254/5
usemtl retroTexturePack/TECH_0A
f  176/160/6  173/159/6  174/158/6  175/157/6

o entity0_brush22
usemtl retroTexturePack/FLOOR_1A
f  177/260/1  178/261/1  179/262/1  180/263/1
usemtl retroTexturePack/FLOOR_1A
f  181/264/2  179/265/2  178/266/2  182/267/2
usemtl retroTexturePack/FLOOR_1A
f  182/268/3  178/269/3  177/270/3  183/271/3
usemtl retroTexturePack/FLOOR_1A
f  184/271/4  180/270/4  179/269/4  181/268/4
usemtl retroTexturePack/FLOOR_1A
f  183/267/5  177/266/5  180/265/5  184/264/5
usemtl retroTexturePack/FLOOR_1A
f  184/263/6  181/262/6  182/261/6  183/260/6

o entity0_brush23
usemtl retroTexturePack/PIPES_2A
f  185/272/1  186/47/1  187/273/1  188/274/1
usemtl retroTexturePack/PIPES_2A
f  189/155/2  187/275/2  186/276/2  190/277/2
usemtl retroTexturePack/PIPES_2A
f  190/278/3  186/279/3  185/280/3  191/151/3
usemtl retroTexturePack/PIPES_2A
f  192/151/4  188/280/4  187/279/4  189/278/4
usemtl retroTexturePack/PIPES_2A
f  191/281/5  185/282/5  188/283/5  192/284/5
usemtl retroTexturePack/PIPES_2A
f  192/274/6  189/273/6  190/47/6  191/272/6

o entity0_brush24
usemtl retroTexturePack/PIPES_2A
f  193/285/1  194/286/1  195/287/1  196/288/1
usemtl retroTexturePack/PIPES_2A
f  197/289/2  195/47/2  194/44/2  198/290/2
usemtl retroTexturePack/PIPES_2A
f  198/291/3  194/292/3  193/293/3  199/294/3
usemtl retroTexturePack/PIPES_2A
f  200/294/4  196/293/4  195/292/4  197/291/4
usemtl retroTexturePack/PIPES_2A
f  199/290/5  193/44/5  196/47/5  200/289/5
usemtl retroTexturePack/PIPES_2A
f  200/295/6  197/296/6  198/274/6  199/297/6

o entity0_brush25
usemtl retroTexturePack/PIPES_2A
f  201/298/1  202/299/1  203/300/1  204/301/1
usemtl retroTexturePack/PIPES_2A
f  205/302/2  203/303/2  202/304/2  206/305/2
usemtl retroTexturePack/PIPES_2A
f  206/306/3  202/307/3  201/308/3  207/309/3
usemtl retroTexturePack/PIPES_2A
f  208/309/4  204/308/4  203/307/4  205/306/4
usemtl retroTexturePack/PIPES_2A
f  207/305/5  201/304/5  204/303/5  208/302/5
usemtl retroTexturePack/PIPES_2A
f  208/310/6  205/298/6  206/200/6  207/311/6

o entity0_brush26
usemtl retroTexturePack/PIPES_2A
f  209/312/1  210/313/1  211/314/1  212/315/1
usemtl retroTexturePack/PIPES_2A
f  213/316/2  211/317/2  210/318/2  214/319/2
usemtl retroTexturePack/PIPES_2A
f  214/320/3  210/321/3  209/322/3  215/323/3
usemtl retroTexturePack/PIPES_2A
f  216/323/4  212/322/4  211/321/4  213/320/4
usemtl retroTexturePack/PIPES_2A
f  215/298/5  209/299/5  212/300/5  216/301/5
usemtl retroTexturePack/PIPES_2A
f  216/315/6  213/314/6  214/313/6  215/312/6

o entity0_brush27
usemtl retroTexturePack/PIPES_2A
f  217/324/1  218/66/1  219/325/1  220/326/1
usemtl retroTexturePack/PIPES_2A
f  221/327/2  219/328/2  218/329/2  222/330/2
usemtl retroTexturePack/PIPES_2A
f  222/218/3  218/331/3  217/332/3  223/333/3
usemtl retroTexturePack/PIPES_2A
f  224/333/4  220/332/4  219/331/4  221/218/4
usemtl retroTexturePack/PIPES_2A
f  223/228/5  217/334/5  220/335/5  224/336/5
usemtl retroTexturePack/PIPES_2A
f  224/326/6  221/325/6  222/66/6  223/324/6

o entity0_brush28
usemtl retroTexturePack/PIPES_2A
f  225/25/1  226/337/1  227/338/1  228/2/1
usemtl retroTexturePack/PIPES_2A
f  229/339/2  227/241/2  226/340/2  230/341/2
usemtl retroTexturePack/PIPES_2A
f  230/342/3  226/343/3  225/46/3  231/344/3
usemtl retroTexturePack/PIPES_2A
f  232/344/4  228/46/4  227/343/4  229/342/4
usemtl retroTexturePack/PIPES_2A
f  231/341/5  225/340/5  228/241/5  232/339/5
usemtl retroTexturePack/PIPES_2A
f  232/345/6  229/346/6  230/347/6  231/6/6

